<svg xmlns="http://www.w3.org/2000/svg" viewBox="0 0 580 310" width="580" height="310">
  <rect width="580" height="310" rx="12" fill="#F8F9FA" stroke="#DEE2E6" stroke-width="2"/>
  <text x="290" y="28" text-anchor="middle" font-family="Arial" font-size="16" font-weight="bold" fill="#212529">Next Token Prediction (Causal LM)</text>

  <!-- Column headers -->
  <text x="20" y="52" font-family="Arial" font-size="11" fill="#666" font-weight="bold">POSITION</text>
  <text x="110" y="52" font-family="Arial" font-size="11" fill="#666" font-weight="bold">VISIBLE CONTEXT</text>
  <text x="430" y="52" font-family="Arial" font-size="11" fill="#666" font-weight="bold">TARGET</text>
  <line x1="20" y1="57" x2="560" y2="57" stroke="#DEE2E6" stroke-width="1"/>

  <!-- Row 0: [The] → cat -->
  <text x="20" y="80" font-family="Arial" font-size="11" fill="#888">pos 0</text>
  <g font-family="monospace" font-size="12">
    <rect x="110" y="64" width="50" height="26" rx="5" fill="#E3F2FD" stroke="#1976D2" stroke-width="1.5"/>
    <text x="135" y="82" text-anchor="middle" fill="#1976D2">The</text>
    <rect x="168" y="64" width="50" height="26" rx="5" fill="#B71C1C" stroke="#B71C1C" stroke-width="1.5"/>
    <text x="193" y="82" text-anchor="middle" fill="white" font-weight="bold">[M]</text>
    <rect x="226" y="64" width="50" height="26" rx="5" fill="#B71C1C" stroke="#B71C1C" stroke-width="1.5"/>
    <text x="251" y="82" text-anchor="middle" fill="white" font-weight="bold">[M]</text>
    <rect x="284" y="64" width="50" height="26" rx="5" fill="#B71C1C" stroke="#B71C1C" stroke-width="1.5"/>
    <text x="309" y="82" text-anchor="middle" fill="white" font-weight="bold">[M]</text>
    <rect x="342" y="64" width="50" height="26" rx="5" fill="#B71C1C" stroke="#B71C1C" stroke-width="1.5"/>
    <text x="367" y="82" text-anchor="middle" fill="white" font-weight="bold">[M]</text>
  </g>
  <text x="420" y="82" font-family="Arial" font-size="16" fill="#888">→</text>
  <rect x="440" y="64" width="60" height="26" rx="5" fill="#388E3C"/>
  <text x="470" y="82" text-anchor="middle" font-family="monospace" font-size="12" fill="white">cat</text>

  <!-- Row 1: [The, cat] → sat -->
  <text x="20" y="120" font-family="Arial" font-size="11" fill="#888">pos 1</text>
  <g font-family="monospace" font-size="12">
    <rect x="110" y="104" width="50" height="26" rx="5" fill="#E3F2FD" stroke="#1976D2" stroke-width="1.5"/>
    <text x="135" y="122" text-anchor="middle" fill="#1976D2">The</text>
    <rect x="168" y="104" width="50" height="26" rx="5" fill="#E3F2FD" stroke="#1976D2" stroke-width="1.5"/>
    <text x="193" y="122" text-anchor="middle" fill="#1976D2">cat</text>
    <rect x="226" y="104" width="50" height="26" rx="5" fill="#B71C1C" stroke="#B71C1C" stroke-width="1.5"/>
    <text x="251" y="122" text-anchor="middle" fill="white" font-weight="bold">[M]</text>
    <rect x="284" y="104" width="50" height="26" rx="5" fill="#B71C1C" stroke="#B71C1C" stroke-width="1.5"/>
    <text x="309" y="122" text-anchor="middle" fill="white" font-weight="bold">[M]</text>
    <rect x="342" y="104" width="50" height="26" rx="5" fill="#B71C1C" stroke="#B71C1C" stroke-width="1.5"/>
    <text x="367" y="122" text-anchor="middle" fill="white" font-weight="bold">[M]</text>
  </g>
  <text x="420" y="122" font-family="Arial" font-size="16" fill="#888">→</text>
  <rect x="440" y="104" width="60" height="26" rx="5" fill="#388E3C"/>
  <text x="470" y="122" text-anchor="middle" font-family="monospace" font-size="12" fill="white">sat</text>

  <!-- Row 2: [The, cat, sat] → on -->
  <text x="20" y="160" font-family="Arial" font-size="11" fill="#888">pos 2</text>
  <g font-family="monospace" font-size="12">
    <rect x="110" y="144" width="50" height="26" rx="5" fill="#E3F2FD" stroke="#1976D2" stroke-width="1.5"/>
    <text x="135" y="162" text-anchor="middle" fill="#1976D2">The</text>
    <rect x="168" y="144" width="50" height="26" rx="5" fill="#E3F2FD" stroke="#1976D2" stroke-width="1.5"/>
    <text x="193" y="162" text-anchor="middle" fill="#1976D2">cat</text>
    <rect x="226" y="144" width="50" height="26" rx="5" fill="#E3F2FD" stroke="#1976D2" stroke-width="1.5"/>
    <text x="251" y="162" text-anchor="middle" fill="#1976D2">sat</text>
    <rect x="284" y="144" width="50" height="26" rx="5" fill="#B71C1C" stroke="#B71C1C" stroke-width="1.5"/>
    <text x="309" y="162" text-anchor="middle" fill="white" font-weight="bold">[M]</text>
    <rect x="342" y="144" width="50" height="26" rx="5" fill="#B71C1C" stroke="#B71C1C" stroke-width="1.5"/>
    <text x="367" y="162" text-anchor="middle" fill="white" font-weight="bold">[M]</text>
  </g>
  <text x="420" y="162" font-family="Arial" font-size="16" fill="#888">→</text>
  <rect x="440" y="144" width="60" height="26" rx="5" fill="#388E3C"/>
  <text x="470" y="162" text-anchor="middle" font-family="monospace" font-size="12" fill="white">on</text>

  <!-- Row 3: [The, cat, sat, on] → the -->
  <text x="20" y="200" font-family="Arial" font-size="11" fill="#888">pos 3</text>
  <g font-family="monospace" font-size="12">
    <rect x="110" y="184" width="50" height="26" rx="5" fill="#E3F2FD" stroke="#1976D2" stroke-width="1.5"/>
    <text x="135" y="202" text-anchor="middle" fill="#1976D2">The</text>
    <rect x="168" y="184" width="50" height="26" rx="5" fill="#E3F2FD" stroke="#1976D2" stroke-width="1.5"/>
    <text x="193" y="202" text-anchor="middle" fill="#1976D2">cat</text>
    <rect x="226" y="184" width="50" height="26" rx="5" fill="#E3F2FD" stroke="#1976D2" stroke-width="1.5"/>
    <text x="251" y="202" text-anchor="middle" fill="#1976D2">sat</text>
    <rect x="284" y="184" width="50" height="26" rx="5" fill="#E3F2FD" stroke="#1976D2" stroke-width="1.5"/>
    <text x="309" y="202" text-anchor="middle" fill="#1976D2">on</text>
    <rect x="342" y="184" width="50" height="26" rx="5" fill="#B71C1C" stroke="#B71C1C" stroke-width="1.5"/>
    <text x="367" y="202" text-anchor="middle" fill="white" font-weight="bold">[M]</text>
  </g>
  <text x="420" y="202" font-family="Arial" font-size="16" fill="#888">→</text>
  <rect x="440" y="184" width="60" height="26" rx="5" fill="#388E3C"/>
  <text x="470" y="202" text-anchor="middle" font-family="monospace" font-size="12" fill="white">the</text>

  <!-- Row 4: [The, cat, sat, on, the] → mat -->
  <text x="20" y="240" font-family="Arial" font-size="11" fill="#888">pos 4</text>
  <g font-family="monospace" font-size="12">
    <rect x="110" y="224" width="50" height="26" rx="5" fill="#E3F2FD" stroke="#1976D2" stroke-width="1.5"/>
    <text x="135" y="242" text-anchor="middle" fill="#1976D2">The</text>
    <rect x="168" y="224" width="50" height="26" rx="5" fill="#E3F2FD" stroke="#1976D2" stroke-width="1.5"/>
    <text x="193" y="242" text-anchor="middle" fill="#1976D2">cat</text>
    <rect x="226" y="224" width="50" height="26" rx="5" fill="#E3F2FD" stroke="#1976D2" stroke-width="1.5"/>
    <text x="251" y="242" text-anchor="middle" fill="#1976D2">sat</text>
    <rect x="284" y="224" width="50" height="26" rx="5" fill="#E3F2FD" stroke="#1976D2" stroke-width="1.5"/>
    <text x="309" y="242" text-anchor="middle" fill="#1976D2">on</text>
    <rect x="342" y="224" width="50" height="26" rx="5" fill="#E3F2FD" stroke="#1976D2" stroke-width="1.5"/>
    <text x="367" y="242" text-anchor="middle" fill="#1976D2">the</text>
  </g>
  <text x="420" y="242" font-family="Arial" font-size="16" fill="#888">→</text>
  <rect x="440" y="224" width="60" height="26" rx="5" fill="#388E3C"/>
  <text x="470" y="242" text-anchor="middle" font-family="monospace" font-size="12" fill="white">mat ✓</text>

  <!-- Legend -->
  <line x1="20" y1="265" x2="560" y2="265" stroke="#DEE2E6" stroke-width="1"/>
  <rect x="20" y="275" width="18" height="14" rx="3" fill="#E3F2FD" stroke="#1976D2" stroke-width="1"/>
  <text x="44" y="287" font-family="Arial" font-size="10" fill="#666">visible</text>
  <rect x="110" y="275" width="18" height="14" rx="3" fill="#B71C1C" stroke="#B71C1C" stroke-width="1"/>
  <text x="134" y="287" font-family="Arial" font-size="10" fill="#666">masked (future)</text>
  <rect x="250" y="275" width="18" height="14" rx="3" fill="#388E3C"/>
  <text x="274" y="287" font-family="Arial" font-size="10" fill="#666">target (next token)</text>
  <text x="420" y="297" font-family="Arial" font-size="9" fill="#888">all positions trained in parallel</text>
</svg>
