<svg xmlns="http://www.w3.org/2000/svg" viewBox="0 0 100 100" width="100" height="100">
  <rect width="100" height="100" rx="16" fill="#2496ED"/>
  <!-- Container stack -->
  <g fill="white" stroke="#2496ED" stroke-width="1">
    <rect x="22" y="30" width="14" height="12" rx="2"/>
    <rect x="38" y="30" width="14" height="12" rx="2"/>
    <rect x="54" y="30" width="14" height="12" rx="2"/>
    <rect x="22" y="44" width="14" height="12" rx="2"/>
    <rect x="38" y="44" width="14" height="12" rx="2"/>
    <rect x="54" y="44" width="14" height="12" rx="2"/>
    <rect x="38" y="16" width="14" height="12" rx="2"/>
  </g>
  <!-- Wave/whale tail -->
  <path d="M15 62 Q50 75 85 62" stroke="white" stroke-width="3" fill="none"/>
  <!-- Pipe -->
  <line x1="70" y1="44" x2="80" y2="44" stroke="white" stroke-width="2.5"/>
  <path d="M80 44 Q88 44 88 36 Q88 28 82 28" stroke="white" stroke-width="2.5" fill="none"/>
  <text x="50" y="90" text-anchor="middle" font-family="Arial" font-size="9" font-weight="bold" fill="white">Docker</text>
</svg>