<svg xmlns="http://www.w3.org/2000/svg" viewBox="0 0 100 100" width="100" height="100">
  <rect width="100" height="100" rx="16" fill="#E6522C"/>
  <!-- Circle background -->
  <circle cx="50" cy="46" r="28" fill="white" opacity="0.15"/>
  <!-- P letter stylized -->
  <rect x="32" y="24" width="7" height="38" rx="2" fill="white"/>
  <rect x="32" y="24" width="22" height="7" rx="2" fill="white"/>
  <rect x="32" y="38" width="22" height="7" rx="2" fill="white"/>
  <path d="M54 24 Q68 24 68 31 Q68 38 54 38" fill="none" stroke="white" stroke-width="7" stroke-linecap="round"/>
  <!-- Bars at bottom -->
  <rect x="28" y="68" width="6" height="10" rx="1" fill="white"/>
  <rect x="37" y="62" width="6" height="16" rx="1" fill="white"/>
  <rect x="46" y="65" width="6" height="13" rx="1" fill="white"/>
  <rect x="55" y="58" width="6" height="20" rx="1" fill="white"/>
  <rect x="64" y="63" width="6" height="15" rx="1" fill="white"/>
  <text x="50" y="94" text-anchor="middle" font-family="Arial" font-size="8" font-weight="bold" fill="white">Prometheus</text>
</svg>