<svg xmlns="http://www.w3.org/2000/svg" viewBox="0 0 100 100" width="100" height="100">
  <rect width="100" height="100" rx="16" fill="#3776AB"/>
  <!-- Python logo - two snakes/interlock -->
  <!-- Blue snake (top) -->
  <path d="M50 15 C35 15 28 22 28 32 L28 42 L50 42 L50 46 L24 46 C18 46 14 50 14 56 L14 68 C14 74 20 80 32 80 L38 80 L38 70 C38 64 44 60 50 60 L72 60 C78 60 86 54 86 48 L86 32 C86 22 78 15 65 15 Z" fill="#FFD43B"/>
  <!-- Yellow snake (bottom) -->
  <path d="M50 85 C65 85 72 78 72 68 L72 58 L50 58 L50 54 L76 54 C82 54 86 50 86 44 L86 32 C86 26 80 20 68 20 L62 20 L62 30 C62 36 56 40 50 40 L28 40 C22 40 14 46 14 52 L14 68 C14 78 22 85 35 85 Z" fill="#3776AB"/>
  <!-- Eyes -->
  <circle cx="41" cy="25" r="3" fill="#3776AB"/>
  <circle cx="59" cy="75" r="3" fill="#FFD43B"/>
  <text x="50" y="95" text-anchor="middle" font-family="Arial" font-size="9" font-weight="bold" fill="white">Python</text>
</svg>