<svg xmlns="http://www.w3.org/2000/svg" viewBox="0 0 100 100" width="100" height="100">
  <rect width="100" height="100" rx="16" fill="#EE4C2C"/>
  <g fill="white">
    <!-- Flame shape -->
    <path d="M50 15 C50 15 30 35 30 52 C30 62.5 39.5 72 50 72 C60.5 72 70 62.5 70 52 C70 35 50 15 50 15Z" fill="white" opacity="0.95"/>
    <!-- Inner flame -->
    <path d="M50 30 C50 30 40 44 40 54 C40 59.5 44.5 64 50 64 C55.5 64 60 59.5 60 54 C60 44 50 30 50 30Z" fill="#EE4C2C"/>
    <!-- Circle at bottom -->
    <circle cx="50" cy="72" r="6" fill="white"/>
    <!-- Small circle top right -->
    <circle cx="62" cy="30" r="5" fill="white"/>
  </g>
  <text x="50" y="90" text-anchor="middle" font-family="Arial" font-size="9" font-weight="bold" fill="white">PyTorch</text>
</svg>